<?xml version="1.0" encoding="UTF-8" standalone="no"?>
<svg
   xmlns:dc="http://purl.org/dc/elements/1.1/"
   xmlns:cc="http://creativecommons.org/ns#"
   xmlns:rdf="http://www.w3.org/1999/02/22-rdf-syntax-ns#"
   xmlns:svg="http://www.w3.org/2000/svg"
   xmlns="http://www.w3.org/2000/svg"
   xmlns:sodipodi="http://sodipodi.sourceforge.net/DTD/sodipodi-0.dtd"
   xmlns:inkscape="http://www.inkscape.org/namespaces/inkscape"
   width="109.09188"
   height="55.026028"
   id="OR-2-INPUT"
   version="1.0"
   inkscape:version="0.91 r13725"
   sodipodi:docname="2_Input_OR.svg">
  <sodipodi:namedview
     pagecolor="#ffffff"
     bordercolor="#666666"
     borderopacity="1"
     objecttolerance="10"
     gridtolerance="10"
     guidetolerance="10"
     inkscape:pageopacity="0"
     inkscape:pageshadow="2"
     inkscape:window-width="1416"
     inkscape:window-height="657"
     id="namedview5286"
     showgrid="true"
     inkscape:zoom="3.7334905"
     inkscape:cx="32.245917"
     inkscape:cy="31.325795"
     inkscape:window-x="0"
     inkscape:window-y="0"
     inkscape:window-maximized="0"
     inkscape:current-layer="OR-2-INPUT">
    <inkscape:grid
       type="xygrid"
       id="grid5828" />
  </sodipodi:namedview>
  <defs
     id="defs4" />
  <metadata
     id="metadata7">
    <rdf:RDF>
      <cc:Work
         rdf:about="">
        <dc:format>image/svg+xml</dc:format>
        <dc:type
           rdf:resource="http://purl.org/dc/dcmitype/StillImage" />
        <dc:title></dc:title>
      </cc:Work>
    </rdf:RDF>
  </metadata>
  <g
     id="layer1"
     transform="translate(-9.9497475,-5)">
    <path
       style="fill:none;stroke:#000000;stroke-width:2.45161653;stroke-linecap:butt;stroke-linejoin:miter;stroke-opacity:1"
       d="m 91.734439,32.513008 c 21.845751,0 27.307191,0 27.307191,0"
       id="path3059" />
    <path
       style="fill:none;stroke:#000000;stroke-width:2.46322799;stroke-linecap:butt;stroke-linejoin:miter;stroke-opacity:1"
       d="m 38.618876,18.756504 -28.6691285,0"
       id="path3061" />
    <path
       style="fill:none;stroke:#000000;stroke-width:2.4739306;stroke-linecap:butt;stroke-linejoin:miter;stroke-opacity:1"
       d="m 39.980814,46.269512 -30.0310665,0"
       id="path3944" />
    <g
       id="g3355"
       transform="matrix(1.3619375,0,0,1.3756504,-3.6011869,-1.878252)">
      <g
         transform="translate(26.5,-39.5)"
         id="2_Input_OR">
        <title
           id="title3346">2_Input_OR</title>
        <path
           id="path4973"
           d="m -2.40625,44.5 2,2.4375 c 0,0 5.65625,7.000049 5.65625,17.5625 0,10.562451 -5.65625,17.5625 -5.65625,17.5625 l -2,2.4375 3.15625,0 14,0 c 2.408076,10e-7 7.689699,0.02451 13.625,-2.40625 5.935301,-2.430764 12.536536,-7.343266 17.6875,-16.875 L 44.75,64.5 46.0625,63.78125 C 35.759387,44.71559 19.506574,44.5 14.75,44.5 l -14,0 -3.15625,0 z m 5.875,3 11.28125,0 c 4.684173,0 18.28685,-0.130207 27.96875,17 C 37.951964,72.929075 32.197469,77.18391 27,79.3125 21.639339,81.507924 17.158075,81.500001 14.75,81.5 l -11.25,0 c 1.8735884,-3.108434 4.75,-9.04935 4.75,-17 0,-7.973354 -2.9085314,-13.900185 -4.78125,-17 z"
           style="fill:#000000;fill-opacity:1;fill-rule:evenodd;stroke:none;stroke-width:3;stroke-linecap:butt;stroke-linejoin:miter;stroke-opacity:1" />
      </g>
    </g>
  </g>
</svg>
