<svg xmlns="http://www.w3.org/2000/svg"
   width="105.10703"
   height="54.930817"
   class="two-input-AND"
   version="1">
  <style id="style8171">
    .s0{
        fill:none;
        stroke-linecap:butt;
        stroke-linejoin:miter;
        stroke-opacity:1;
        stroke-width:1.79;
        stroke:#000;
    }
  </style>
  <g transform="matrix(1.234375,0,0,1.3732704,-12.158594,-6.866352)" class="component">
    <path
       d="m 74.98,25.13 c 16.01,0 20.02,0 20.02,0"
       id="output-2-AND"
       class="gate-output"
       aria-label="34.5"
       ondblclick="findOutputCoords(this)"
       style="fill:none;stroke-width:1.78999996;stroke-linecap:butt;stroke-linejoin:miter;stroke-opacity:1">
    </path>
    <path
       d="m 31,16.150564 -20.89,0"
       id="input-A2-AND"
       aria-label="22.2"
       class="gate-input"
       ondblclick="findInputCoords(this)"
       style="fill:none;stroke-width:1.78999996;stroke-linecap:butt;stroke-linejoin:miter;stroke-opacity:1">
    </path>
    <path
       d="m 32,34.140661 -22.02,0"
       class="gate-input"
       id="input-B2-AND"
       aria-label="47"
       ondblclick="findInputCoords(this)"
       style="fill:none;stroke-width:1.80999994;stroke-linecap:butt;stroke-linejoin:miter;stroke-opacity:1">
    </path>
    <path
       d="m 30,5 0,1.43 0,37.14 0,1.43 1.59,0 21.15,0 c 12.51,0 22.2,-9 22.2,-20 0,-11 -9.69,-20 -22.2,-20 0,0 0,0 -21.15,0 L 30,5 Z m 3.17,2.86 c 8.86,0 14.5,0 16.92,0 1.32,0 1.98,0 2.31,0 0.17,0 0.26,0 0.3,0 0.02,0 0.03,0 0.03,0 10.84,0 18.5,7.64 18.5,17.14 0,9.5 -8.2,17.14 -19.03,17.14 l -19.03,0 0,-34.29 z"
       id="two-AND"
       style="font-style:normal;font-variant:normal;font-weight:normal;font-stretch:normal;font-size:medium;line-height:normal;font-family:'Bitstream Vera Sans';text-indent:0;text-align:start;text-decoration:none;text-decoration-line:none;letter-spacing:normal;word-spacing:normal;text-transform:none;direction:ltr;block-progression:tb;writing-mode:lr-tb;text-anchor:start;visibility:visible;fill:#000000;fill-opacity:1;marker:none">
    </path>
      <rect x="30" y="6" width="43" height="43" fill="transparent" onmouseup="redrawWires(this.parentNode)"/>
  </g>
</svg>
