<svg xmlns="http://www.w3.org/2000/svg" width="110.25" height="55" class="two-input-NAND" version="1.0">
  <g transform="translate(-5,-5)">
    <path style="fill:none;stroke:#000000;stroke-width:2.59566951;stroke-linecap:butt;stroke-linejoin:miter;stroke-opacity:1" d="m 95.65,32.5 c 15.68,0 19.6,0 19.6,0" class="gate-output"/>
    <path style="fill:none;stroke:#000000;stroke-width:2.59566951;stroke-linecap:butt;stroke-linejoin:miter;stroke-opacity:1" d="M 36.85,18.75 5,18.75" class="gate-input"/>
    <path style="fill:none;stroke:#000000;stroke-width:2.59566927;stroke-linecap:butt;stroke-linejoin:miter;stroke-opacity:1" d="M 38.075,46.25 5,46.25" class="gate-input"/>
    <path style="font-style:normal;font-variant:normal;font-weight:normal;font-stretch:normal;font-size:medium;line-height:normal;font-family:'Bitstream Vera Sans';-inkscape-font-specification:'Bitstream Vera Sans';text-indent:0;text-align:start;text-decoration:none;text-decoration-line:none;letter-spacing:normal;word-spacing:normal;text-transform:none;direction:ltr;block-progression:tb;writing-mode:lr-tb;text-anchor:start;display:inline;overflow:visible;visibility:visible;fill:#000000;fill-opacity:1;stroke:none;stroke-width:3;marker:none;enable-background:accumulate" d="m 35.625,5 0,1.9642857 0,51.0714293 0,1.964285 1.75,0 23.333333,0 C 74.51152,60 85.208332,47.624938 85.208332,32.5 85.208332,17.375062 74.511521,5.0000002 60.708333,5 c 0,0 0,0 -23.333333,0 l -1.75,0 z m 3.5,3.9285715 c 9.771974,0 16.000001,0 18.666667,0 1.458333,0 2.187499,0 2.552082,0 0.182292,0 0.282554,0 0.328126,0 0.02278,0 0.03076,0 0.03645,0 11.956813,10e-8 20.416668,10.5049385 20.416668,23.5714285 0,13.06649 -9.043189,23.571428 -21,23.571428 l -21,0 0,-47.1428565 z" class="two-NAND"/>
    <ellipse style="display:inline;overflow:visible;visibility:visible;fill:none;fill-opacity:1;stroke:#000000;stroke-width:3.89350438;stroke-linejoin:miter;stroke-opacity:1;marker:none;enable-background:accumulate" cx="90.75" cy="32.5" rx="4.9000001" ry="5.5" />
  </g>
</svg>
