<svg xmlns="http://www.w3.org/2000/svg" width="109.09188" height="55.026028" class="three-input-OR" version="1.0">
  <g class="component">
  <path d="m 81.784691,27.513008 c 21.845749,0 27.307189,0 27.307189,0" aria-label="27.513" class="gate-output" style="fill:none;stroke-width:2.45161653;stroke-linecap:butt;stroke-linejoin:miter;stroke-opacity:1" />
  <path d="m 28.858524,9.9685914 -28.66912837,0" aria-label="9.9685914" class="gate-input input1" style="fill:none;stroke-width:2.46322799;stroke-linecap:butt;stroke-linejoin:miter;stroke-opacity:1" />
  <path d="m 29.841671,44.868029 -30.03106663,0" aria-label="44.868029" class="gate-input input3" style="fill:none;stroke-width:2.4739306;stroke-linecap:butt;stroke-linejoin:miter;stroke-opacity:1" />
  <g transform="matrix(1.3619375,0,0,1.3756504,-13.550934,-6.878252)">
    <g id="two_Input_OR" transform="translate(26.5,-39.5)">
      <path style="fill:#000000;fill-opacity:1;fill-rule:evenodd;stroke:none;stroke-width:3;stroke-linecap:butt;stroke-linejoin:miter;stroke-opacity:1" d="m -2.40625,44.5 2,2.4375 c 0,0 5.65625,7.000049 5.65625,17.5625 0,10.562451 -5.65625,17.5625 -5.65625,17.5625 l -2,2.4375 3.15625,0 14,0 c 2.408076,10e-7 7.689699,0.02451 13.625,-2.40625 5.935301,-2.430764 12.536536,-7.343266 17.6875,-16.875 L 44.75,64.5 46.0625,63.78125 C 35.759387,44.71559 19.506574,44.5 14.75,44.5 l -14,0 -3.15625,0 z m 5.875,3 11.28125,0 c 4.684173,0 18.28685,-0.130207 27.96875,17 C 37.951964,72.929075 32.197469,77.18391 27,79.3125 21.639339,81.507924 17.158075,81.500001 14.75,81.5 l -11.25,0 c 1.8735884,-3.108434 4.75,-9.04935 4.75,-17 0,-7.973354 -2.9085314,-13.900185 -4.78125,-17 z" class="three-OR"/>
    </g>
  </g>
  <path d="m 30.941876,27.563661 -31.13127168,0" aria-label="27.563661" class="gate-input input2" style="fill:none;stroke-width:2.56682229;stroke-linecap:butt;stroke-linejoin:miter;stroke-opacity:1" />
  <rect x="30" y="1" width="50" height="50" fill="transparent" class="drag-box"/>
  </g>
</svg>
