<svg xmlns="http://www.w3.org/2000/svg" width="109.62221" height="54.849255" class="three-input-NOR" version="1.0">
  <g transform="translate(-5,-5.0000001)" class="component">
    <path style="fill:none;stroke-width:2.58471894;stroke-linecap:butt;stroke-linejoin:miter;stroke-opacity:1" ondblclick="findOutputCoords(this)" aria-label="32.424619" d="m 95.13382,32.424619 c 24.36049,0 19.48839,0 19.48839,0" class="gate-output"/>
    <path style="fill:none;stroke-width:2.51228857;stroke-linecap:butt;stroke-linejoin:miter;stroke-opacity:1" aria-label="15.46231" ondblclick="findInputCoords(this)" d="m 35.168639,15.46231 -29.918639,0" class="gate-input input1"/>
    <path style="fill:none;stroke-width:2.48453379;stroke-linecap:butt;stroke-linejoin:miter;stroke-opacity:1" aria-label="50.136929" ondblclick="findInputCoords(this)" d="M 35.386664,50.136929 5,50.136929" class="gate-input input3"/>
    <g transform="matrix(1.2180246,0,0,1.371231,-1.090123,-1.8561549)">
      <g transform="translate(26.5,-39.5)">
        <path d="m -2.40625,44.5 2,2.4375 c 0,0 5.65625,7.000049 5.65625,17.5625 0,10.562451 -5.65625,17.5625 -5.65625,17.5625 l -2,2.4375 3.15625,0 14,0 c 2.408076,10e-7 7.689699,0.02451 13.625,-2.40625 5.935301,-2.430764 12.536536,-7.343266 17.6875,-16.875 L 44.75,64.5 46.0625,63.78125 C 35.759387,44.71559 19.506574,44.5 14.75,44.5 l -14,0 -3.15625,0 z m 5.875,3 11.28125,0 c 4.684173,0 18.28685,-0.130207 27.96875,17 C 37.951964,72.929075 32.197469,77.18391 27,79.3125 21.639339,81.507924 17.158075,81.500001 14.75,81.5 l -11.25,0 c 1.8735884,-3.108434 4.75,-9.04935 4.75,-17 0,-7.973354 -2.9085314,-13.900185 -4.78125,-17 z" class="three-NOR" style="fill:#000000;fill-opacity:1;fill-rule:evenodd;stroke:none;stroke-width:3;stroke-linecap:butt;stroke-linejoin:miter;stroke-opacity:1" />
        <circle r="4" cy="25" cx="75" transform="translate(-26.5,39.5)" style="display:inline;overflow:visible;visibility:visible;fill:none;fill-opacity:1;stroke:#000000;stroke-width:3;stroke-linejoin:miter;stroke-opacity:1;marker:none;enable-background:accumulate" />
      </g>
    </g>
    <path style="fill:none;stroke-width:2.63523626;stroke-linecap:butt;stroke-linejoin:miter;stroke-opacity:1" aria-label="32.71231" ondblclick="findInputCoords(this)" d="m 37.918639,32.71231 -32.9186389,0" class="gate-input input2"/>
    <rect x="35" y="6" width="48" height="55" fill="transparent" onmouseup="redrawWires(this.parentNode)"/>
  </g>
</svg>
