<?xml version="1.0" encoding="UTF-8" standalone="no"?>
<svg
   xmlns:svg="http://www.w3.org/2000/svg"
   xmlns="http://www.w3.org/2000/svg"
   width="105.10703"
   height="54.930817"
   id="svg2"
   version="1">
  <style id="style8171">
    .s0{
        fill:none;
        stroke-linecap:butt;
        stroke-linejoin:miter;
        stroke-opacity:1;
        stroke-width:1.79;
        stroke:#000;
    }
  </style>
  <defs id="defs4" />
  <g id="layer1"
     transform="matrix(1.234375,0,0,1.3732704,-12.158594,-6.866352)">
    <path
       d="m 74.98,25.13 c 16.01,0 20.02,0 20.02,0"
       id="output3AND"
       class="s0"
       style="fill:none;stroke:#000000;stroke-width:1.78999996;stroke-linecap:butt;stroke-linejoin:miter;stroke-opacity:1">
      <title
         id="title3353">
        output3AND
      </title>
    </path>
    <path
       d="M 31,12 10.11,12"
       id="inputA3AND"
       class="s0"
       style="fill:none;stroke:#000000;stroke-width:1.78999996;stroke-linecap:butt;stroke-linejoin:miter;stroke-opacity:1">
      <title id="title3355">
        inputA3AND
      </title>
    </path>
    <path
       d="M 32,38 9.98,38"
       id="inputC3AND"
       style="fill:none;stroke:#000000;stroke-width:1.80999994;stroke-linecap:butt;stroke-linejoin:miter;stroke-opacity:1">
      <title id="title3359">
        inputC3AND
      </title>
    </path>
    <path
       d="m 30,5 0,1.43 0,37.14 0,1.43 1.59,0 21.15,0 c 12.51,0 22.2,-9 22.2,-20 0,-11 -9.69,-20 -22.2,-20 0,0 0,0 -21.15,0 L 30,5 Z m 3.17,2.86 c 8.86,0 14.5,0 16.92,0 1.32,0 1.98,0 2.31,0 0.17,0 0.26,0 0.3,0 0.02,0 0.03,0 0.03,0 10.84,0 18.5,7.64 18.5,17.14 0,9.5 -8.2,17.14 -19.03,17.14 l -19.03,0 0,-34.29 z"
       id="3"
       onmouseover=""
       style="font-style:normal;font-variant:normal;font-weight:normal;font-stretch:normal;font-size:medium;line-height:normal;font-family:'Bitstream Vera Sans';-inkscape-font-specification:'Bitstream Vera Sans';text-indent:0;text-align:start;text-decoration:none;text-decoration-line:none;letter-spacing:normal;word-spacing:normal;text-transform:none;direction:ltr;block-progression:tb;writing-mode:lr-tb;text-anchor:start;visibility:visible;fill:#000000;fill-opacity:1;marker:none">
      <title id="title3365">
        3AND
      </title>
    </path>
    <path
       d="M 31,25 9.85,25"
       id="inputB3AND"
       style="fill:none;stroke:#000000;stroke-width:1.79999995;stroke-linecap:butt;stroke-linejoin:miter;stroke-opacity:1">
      <title id="title3357">
        inputB3AND
      </title>
    </path>
    <path
       d="m 10,25 0,0"
       id="path3361"
       style="fill:none;stroke:#000000;stroke-width:1;stroke-linecap:butt;stroke-linejoin:miter;stroke-opacity:1"/>
  </g>
</svg>
