<?xml version="1.0" encoding="UTF-8" standalone="no"?>
<!-- Created with Inkscape (http://www.inkscape.org/) -->

<svg
   xmlns:dc="http://purl.org/dc/elements/1.1/"
   xmlns:cc="http://creativecommons.org/ns#"
   xmlns:rdf="http://www.w3.org/1999/02/22-rdf-syntax-ns#"
   xmlns:svg="http://www.w3.org/2000/svg"
   xmlns="http://www.w3.org/2000/svg"
   xmlns:sodipodi="http://sodipodi.sourceforge.net/DTD/sodipodi-0.dtd"
   xmlns:inkscape="http://www.inkscape.org/namespaces/inkscape"
   width="109.09188"
   height="55.026028"
   id="svg2"
   sodipodi:version="0.32"
   inkscape:version="0.91 r13725"
   version="1.0"
   sodipodi:docname="OR_ANSI.svg"
   inkscape:output_extension="org.inkscape.output.svg.inkscape">
  <defs
     id="defs4">
    <inkscape:perspective
       sodipodi:type="inkscape:persp3d"
       inkscape:vp_x="0 : 15 : 1"
       inkscape:vp_y="0 : 1000 : 0"
       inkscape:vp_z="50 : 15 : 1"
       inkscape:persp3d-origin="25 : 10 : 1"
       id="perspective2714" />
    <inkscape:perspective
       sodipodi:type="inkscape:persp3d"
       inkscape:vp_x="0 : 0.5 : 1"
       inkscape:vp_y="0 : 1000 : 0"
       inkscape:vp_z="1 : 0.5 : 1"
       inkscape:persp3d-origin="0.5 : 0.33333333 : 1"
       id="perspective2806" />
    <inkscape:perspective
       id="perspective2819"
       inkscape:persp3d-origin="372.04724 : 350.78739 : 1"
       inkscape:vp_z="744.09448 : 526.18109 : 1"
       inkscape:vp_y="0 : 1000 : 0"
       inkscape:vp_x="0 : 526.18109 : 1"
       sodipodi:type="inkscape:persp3d" />
    <inkscape:perspective
       id="perspective2777"
       inkscape:persp3d-origin="75 : 40 : 1"
       inkscape:vp_z="150 : 60 : 1"
       inkscape:vp_y="0 : 1000 : 0"
       inkscape:vp_x="0 : 60 : 1"
       sodipodi:type="inkscape:persp3d" />
    <inkscape:perspective
       id="perspective3275"
       inkscape:persp3d-origin="50 : 33.333333 : 1"
       inkscape:vp_z="100 : 50 : 1"
       inkscape:vp_y="0 : 1000 : 0"
       inkscape:vp_x="0 : 50 : 1"
       sodipodi:type="inkscape:persp3d" />
    <inkscape:perspective
       id="perspective5533"
       inkscape:persp3d-origin="32 : 21.333333 : 1"
       inkscape:vp_z="64 : 32 : 1"
       inkscape:vp_y="0 : 1000 : 0"
       inkscape:vp_x="0 : 32 : 1"
       sodipodi:type="inkscape:persp3d" />
    <inkscape:perspective
       id="perspective2557"
       inkscape:persp3d-origin="25 : 16.666667 : 1"
       inkscape:vp_z="50 : 25 : 1"
       inkscape:vp_y="0 : 1000 : 0"
       inkscape:vp_x="0 : 25 : 1"
       sodipodi:type="inkscape:persp3d" />
    <symbol
       id="Or_Gate">
      <title
         id="title5651">Or Gate</title>
      <path
         d="M 24.65625,70 45,70 C 65,70 75,50 75,50 75,50 70,30 45,30 l -20.34375,0 c 1.789926,3.094188 3.151364,6.453471 4.0625,10 C 29.54012,43.197121 30,46.545819 30,50 c 0,3.454181 -0.45988,6.802879 -1.28125,10 -0.911136,3.546529 -2.272574,6.905812 -4.0625,10 z"
         id="path5653"
         inkscape:connector-curvature="0" />
    </symbol>
    <symbol
       id="And_Gate">
      <title
         id="title5663">And Gate</title>
      <path
         d="m 25,70 0,-10 0,-10 0,-10 0,-10 30,0 c 11.045695,0 20,8.954305 20,20 0,11.045695 -8.954305,20 -20,20 z"
         id="path5665"
         inkscape:connector-curvature="0" />
    </symbol>
  </defs>
  <sodipodi:namedview
     id="base"
     pagecolor="#ffffff"
     bordercolor="#666666"
     borderopacity="1.0"
     inkscape:pageopacity="0.0"
     inkscape:pageshadow="2"
     inkscape:zoom="5.6568542"
     inkscape:cx="62.187759"
     inkscape:cy="12.919758"
     inkscape:document-units="px"
     inkscape:current-layer="layer1"
     showgrid="true"
     inkscape:grid-bbox="true"
     inkscape:grid-points="true"
     gridtolerance="10000"
     inkscape:window-width="1399"
     inkscape:window-height="864"
     inkscape:window-x="37"
     inkscape:window-y="-4"
     inkscape:snap-bbox="true"
     inkscape:snap-grids="true"
     inkscape:window-maximized="1"
     fit-margin-top="0"
     fit-margin-left="0"
     fit-margin-right="0"
     fit-margin-bottom="0">
    <inkscape:grid
       id="GridFromPre046Settings"
       type="xygrid"
       originx="-9.9497475"
       originy="10.026027"
       spacingx="1px"
       spacingy="1px"
       color="#0000ff"
       empcolor="#0000ff"
       opacity="0.2"
       empopacity="0.4"
       empspacing="5"
       visible="true"
       enabled="true" />
  </sodipodi:namedview>
  <metadata
     id="metadata7">
    <rdf:RDF>
      <cc:Work
         rdf:about="">
        <dc:format>image/svg+xml</dc:format>
        <dc:type
           rdf:resource="http://purl.org/dc/dcmitype/StillImage" />
        <dc:title></dc:title>
      </cc:Work>
    </rdf:RDF>
  </metadata>
  <g
     inkscape:label="Layer 1"
     inkscape:groupmode="layer"
     id="layer1"
     transform="translate(-9.9497475,-5)">
    <path
       style="fill:none;stroke:#000000;stroke-width:2.45161653;stroke-linecap:butt;stroke-linejoin:miter;stroke-opacity:1"
       d="m 91.734439,32.513008 c 21.845751,0 27.307191,0 27.307191,0"
       id="path3059"
       sodipodi:nodetypes="cc"
       inkscape:connector-curvature="0" />
    <path
       style="fill:none;stroke:#000000;stroke-width:2.46322799;stroke-linecap:butt;stroke-linejoin:miter;stroke-opacity:1"
       d="m 38.618876,18.756504 -28.6691285,0"
       id="path3061"
       inkscape:connector-curvature="0" />
    <path
       style="fill:none;stroke:#000000;stroke-width:2.4739306;stroke-linecap:butt;stroke-linejoin:miter;stroke-opacity:1"
       d="m 39.980814,46.269512 -30.0310665,0"
       id="path3944"
       inkscape:connector-curvature="0" />
    <g
       id="g3355"
       transform="matrix(1.3619375,0,0,1.3756504,-3.6011869,-1.878252)">
      <g
         transform="translate(26.5,-39.5)"
         inkscape:label="2_Input_OR"
         id="2_Input_OR">
        <title
           id="title3346">2_Input_OR</title>
        <path
           inkscape:connector-curvature="0"
           sodipodi:nodetypes="ccsccccscccccccccsccsc"
           id="path4973"
           d="m -2.40625,44.5 2,2.4375 c 0,0 5.65625,7.000049 5.65625,17.5625 0,10.562451 -5.65625,17.5625 -5.65625,17.5625 l -2,2.4375 3.15625,0 14,0 c 2.408076,10e-7 7.689699,0.02451 13.625,-2.40625 5.935301,-2.430764 12.536536,-7.343266 17.6875,-16.875 L 44.75,64.5 46.0625,63.78125 C 35.759387,44.71559 19.506574,44.5 14.75,44.5 l -14,0 -3.15625,0 z m 5.875,3 11.28125,0 c 4.684173,0 18.28685,-0.130207 27.96875,17 C 37.951964,72.929075 32.197469,77.18391 27,79.3125 21.639339,81.507924 17.158075,81.500001 14.75,81.5 l -11.25,0 c 1.8735884,-3.108434 4.75,-9.04935 4.75,-17 0,-7.973354 -2.9085314,-13.900185 -4.78125,-17 z"
           style="fill:#000000;fill-opacity:1;fill-rule:evenodd;stroke:none;stroke-width:3;stroke-linecap:butt;stroke-linejoin:miter;stroke-opacity:1" />
      </g>
    </g>
  </g>
</svg>
